<?xml version="1.0" encoding="utf-8"?>
<!-- Generator: Adobe Illustrator 19.2.1, SVG Export Plug-In . SVG Version: 6.00 Build 0)  -->
<svg version="1.1" id="layer" xmlns="http://www.w3.org/2000/svg" xmlns:xlink="http://www.w3.org/1999/xlink" x="0px" y="0px"
	 viewBox="0 0 652 652" style="enable-background:new 0 0 652 652;" xml:space="preserve">
<style type="text/css">
	.st0{fill:#FFC000;}
</style>
<g>
	<g transform="translate(56.686 174.803)">
		<path class="st0" d="M85,377.9v14.6h4.1c4.4,0,7.3-2.9,7.3-7.2v-0.1c0-4.3-2.9-7.3-7.3-7.3H85z M80.1,373.4h9.1
			c7.4,0,12.5,5.1,12.5,11.7v0.1c0,6.6-5.1,11.8-12.5,11.8h-9.1V373.4z M122.4,384.9c2.6,0,4.1-1.4,4.1-3.5v-0.1
			c0-2.3-1.6-3.5-4.2-3.5H117v7H122.4z M112.1,373.4h10.7c3,0,5.3,0.8,6.8,2.4c1.3,1.3,2,3.1,2,5.3v0.1c0,3.8-2.1,6.2-5.1,7.3
			l5.9,8.5h-5.8l-5.2-7.7H117v7.7h-4.9V373.4z"/>
		<polygon class="st0" points="142.3,396.9 147.3,396.9 147.3,373.4 142.3,373.4 		"/>
		<polygon class="st0" points="159,373.4 163.5,373.4 174.9,388.2 174.9,373.4 179.8,373.4 179.8,396.9 175.5,396.9 163.9,381.6 
			163.9,396.9 159,396.9 		"/>
		<polygon class="st0" points="191.3,373.4 196.2,373.4 196.2,384 206,373.4 212.1,373.4 202.5,383.4 212.5,396.9 206.6,396.9 
			199.1,386.8 196.2,389.8 196.2,396.9 191.3,396.9 		"/>
		<path class="st0" d="M235.7,393.5l2.9-3.5c2.1,1.8,4.4,2.9,7.1,2.9c2.2,0,3.5-0.9,3.5-2.4v-0.1c0-1.4-0.8-2.1-4.8-3.1
			c-4.8-1.2-7.8-2.6-7.8-7.2v-0.1c0-4.2,3.4-7,8.2-7c3.4,0,6.3,1.1,8.7,3l-2.6,3.8c-2.1-1.5-4.1-2.4-6.2-2.4c-2.1,0-3.2,1-3.2,2.2
			v0.1c0,1.6,1,2.2,5.2,3.2c4.8,1.2,7.5,3,7.5,7v0.1c0,4.6-3.5,7.2-8.6,7.2C242,397.3,238.5,396,235.7,393.5 M283.2,385.2
			L283.2,385.2c0-4.2-3-7.7-7.3-7.7s-7.2,3.4-7.2,7.5v0.1c0,4.1,3,7.6,7.3,7.6C280.2,392.8,283.2,389.4,283.2,385.2 M263.5,385.2
			L263.5,385.2c0-6.7,5.3-12.2,12.5-12.2c7.2,0,12.4,5.4,12.4,12.1v0.1c0,6.7-5.3,12.2-12.5,12.2
			C268.7,397.3,263.5,391.9,263.5,385.2 M297.7,385.2L297.7,385.2c0-6.8,5-12.2,12.2-12.2c4.4,0,7.1,1.5,9.3,3.6l-3.2,3.7
			c-1.8-1.7-3.7-2.7-6.1-2.7c-4.1,0-7,3.4-7,7.5v0.1c0,4.1,2.9,7.6,7,7.6c2.7,0,4.4-1.1,6.3-2.8l3.2,3.2c-2.4,2.6-5.1,4.2-9.6,4.2
			C302.9,397.3,297.7,392,297.7,385.2"/>
		<polygon class="st0" points="329.6,396.9 334.5,396.9 334.5,373.4 329.6,373.4 		"/>
		<path class="st0" d="M359.9,387.2l-3.3-8l-3.3,8H359.9z M354.3,373.2h4.6l10.1,23.7h-5.2l-2.2-5.4h-10.2l-2.2,5.4h-5.1
			L354.3,373.2z"/>
		<polygon class="st0" points="378.5,373.4 383.5,373.4 383.5,392.4 395.3,392.4 395.3,396.9 378.5,396.9 		"/>
		<polygon class="st0" points="405,373.4 410,373.4 410,392.4 421.8,392.4 421.8,396.9 405,396.9 		"/>
		<polygon class="st0" points="433.8,387.7 424.7,373.4 430.5,373.4 436.3,383 442.2,373.4 447.9,373.4 438.8,387.6 438.8,396.9 
			433.8,396.9 		"/>
	</g>
	<g transform="translate(0 120.906)">
		<path class="st0" d="M-17.6,356.2v-70.4c0-0.6,0.5-1.1,1.1-1.1H4.3c0.6,0,1.1,0.5,1.1,1.1v69c0,16.3,7.1,22.6,22.4,22.6
			c15.1,0,22-6.3,22-22.6v-69c0-0.6,0.5-1.1,1.1-1.1h20.8c0.6,0,1.1,0.5,1.1,1.1v70.4c0,28.3-19.6,42-45,42
			C2,398.1-17.6,384.5-17.6,356.2 M89.7,283.5l68.2,64.2l-0.1-61.9c0-0.6,0.5-1.1,1.1-1.1h19.3c0.6,0,1.1,0.5,1.1,1.1v111.1
			c0,1.1-1.3,1.7-2.2,0.9L109,333.7l0,61.8c0,0.6-0.5,1.1-1.1,1.1H88.6c-0.6,0-1.1-0.5-1.1-1.1l0.1-111.1
			C87.5,283.3,88.8,282.7,89.7,283.5 M223.9,304.9h-30.8c-0.6,0-1.1-0.5-1.1-1.1v-18c0-0.6,0.5-1.1,1.1-1.1h84.5
			c0.6,0,1.1,0.5,1.1,1.1v18c0,0.6-0.5,1.1-1.1,1.1h-30.8v90.6c0,0.6-0.5,1.1-1.1,1.1H225c-0.6,0-1.1-0.5-1.1-1.1V304.9z
			 M315.7,326.4l-14.9,38.3h29.4L315.7,326.4z M316.9,284.1l50.2,111c0.3,0.7-0.2,1.6-1,1.6h-21.7c-0.5,0-0.9-0.3-1-0.7l-5-12H293
			l-5,12c-0.2,0.4-0.6,0.7-1,0.7h-19.7c-0.8,0-1.4-0.8-1-1.6l48.3-111C315,283.1,316.4,283.1,316.9,284.1L316.9,284.1z M408.9,350.9
			c18.7,0,26.9-7.6,26.9-22.9c0-15.5-8.5-23.1-26.9-23.1h-7.2v46H408.9z M378.7,285.8c0-0.6,0.5-1.1,1.1-1.1h29.8
			c31.2,0,50,16.3,50,43.3c0,27-18.9,43.2-50,43.2h-7.9v24.4c0,0.6-0.5,1.1-1.1,1.1h-20.8c-0.6,0-1.1-0.5-1.1-1.1V285.8z
			 M503.4,350.9c18.7,0,27-7.6,27-22.9c0-15.5-8.6-23.1-27-23.1h-7.2v46H503.4z M473.2,285.8c0-0.6,0.5-1.1,1.1-1.1h29.8
			c31.2,0,50,16.3,50,43.3c0,27-18.9,43.2-50,43.2h-7.9v24.4c0,0.6-0.5,1.1-1.1,1.1h-20.8c-0.6,0-1.1-0.5-1.1-1.1V285.8z
			 M598.9,376.4c24.8,0,36.2-14.8,36.2-35.7c0-20.9-11.3-35.7-36.2-35.7h-10.2v71.5H598.9z M565.7,285.8c0-0.6,0.5-1.1,1.1-1.1h33.2
			c34.4,0,58.8,22.9,58.8,56c0,33.1-24.3,56-58.8,56h-33.2c-0.6,0-1.1-0.5-1.1-1.1V285.8z"/>
	</g>
	<g transform="translate(61.047)">
		<path class="st0" d="M245.3,234.2l-83.4,116.5c-4.3,6-11.5,9.1-18.7,8.2c-8.3-1-19.7-4.1-31.4-12.6c-11.8-8.5-18.3-18.3-22-25.8
			c-3.2-6.6-2.5-14.4,1.7-20.4l83.4-116.5c4-5.5,9.2-10.1,15.2-13.3l16.4-8.7c3.3-1.7,6.2-4.1,8.7-6.8c8-9,29.3-32.7,67.3-71l0.7-3
			c0.2-0.7,0.7-1.3,1.4-1.4l2.1-0.5c0.9-0.2,1.5-1.1,1.4-2l-0.2-2.6c-0.1-1.1,0.7-2,1.8-2c2.5-0.1,7.4,0.7,14.3,5.6
			c6.9,5,9.2,9.4,9.9,11.8c0.3,1-0.3,2.1-1.4,2.4l-2.5,0.6c-0.9,0.2-1.5,1.1-1.5,2l0.2,2.2c0.1,0.7-0.3,1.4-0.9,1.8l-2.7,1.6
			c-24,48.2-39.6,76.1-45.6,86.6c-1.9,3.2-3.1,6.8-3.7,10.5l-2.9,18.4C251.9,222.2,249.3,228.6,245.3,234.2z M427.7,300l-83.4-116.5
			c-4-5.5-9.2-10.1-15.2-13.3l-16.4-8.7c-3.3-1.7-6.2-4.1-8.7-6.8c-2-2.2-4.8-5.4-8.4-9.4c-0.6-0.6-1.6-0.5-2,0.3
			c-12.6,24.3-21.2,39.4-25,46.2c-1.2,2.2-2.1,4.5-2.5,6.9c-0.8,5.2-0.8,10.6,0,15.8l0.1,0.9c1.1,6.7,3.7,13.1,7.7,18.7l83.4,116.5
			c4.2,5.9,11.3,9.1,18.5,8.2c8.3-1,19.8-4.1,31.6-12.6c11.8-8.5,18.3-18.3,22-25.8C432.6,313.8,432,306,427.7,300 M206.7,91.9
			l2.5,0.6c0.9,0.2,1.5,1.1,1.5,2l-0.2,2.2c-0.1,0.7,0.3,1.4,0.9,1.8l2.7,1.6c4.4,8.9,8.6,17.1,12.4,24.6c0.4,0.7,1.3,0.9,1.9,0.3
			c6.3-6.7,13.8-14.7,22.7-23.9c0.7-0.8,0.8-2,0-2.7c-4.5-4.6-9.2-9.4-14.4-14.6l-0.7-3c-0.1-0.7-0.7-1.2-1.4-1.4l-2.1-0.5
			c-0.9-0.2-1.5-1.1-1.4-2l0.2-2.6c0.1-1.1-0.7-2-1.8-2c-2.5-0.1-7.4,0.6-14.4,5.6c-6.9,5-9.2,9.4-9.9,11.8
			C205,90.6,205.7,91.7,206.7,91.9"/>
	</g>
</g>
</svg>
